<?xml version="1.0" standalone="no"?>
<!DOCTYPE svg PUBLIC "-//W3C//DTD SVG 20010904//EN"
 "http://www.w3.org/TR/2001/REC-SVG-20010904/DTD/svg10.dtd">
<svg version="1.0" xmlns="http://www.w3.org/2000/svg"
 width="960.000000pt" height="960.000000pt" viewBox="0 0 960.000000 960.000000"
 preserveAspectRatio="xMidYMid meet">

<g transform="translate(0.000000,960.000000) scale(0.100000,-0.100000)"
fill="#000000" stroke="none">
<path d="M0 4800 l0 -4800 4800 0 4800 0 0 4800 0 4800 -4800 0 -4800 0 0
-4800z m3727 4002 c12 -1 24 -10 27 -20 4 -10 26 -28 51 -40 35 -17 45 -27 45
-47 0 -15 -8 -29 -22 -36 -21 -11 -21 -12 -4 -25 12 -8 17 -21 13 -34 -3 -12
-1 -20 6 -19 26 4 87 -33 102 -61 9 -17 14 -34 11 -38 -3 -4 -1 -14 4 -22 4
-7 5 -23 0 -35 -4 -12 -4 -29 2 -39 6 -11 6 -21 0 -29 -6 -7 -13 -45 -15 -85
-5 -70 -4 -73 25 -102 16 -17 37 -30 47 -30 9 0 32 -16 51 -35 19 -19 41 -35
48 -35 6 0 12 -9 12 -20 0 -15 -7 -20 -27 -20 -26 0 -112 -44 -125 -63 -4 -7
-11 -7 -21 1 -12 11 -17 7 -25 -18 -8 -23 -17 -30 -36 -30 -14 0 -28 -4 -31
-10 -3 -5 -14 -10 -24 -10 -30 0 -55 -25 -46 -46 11 -27 15 -48 25 -154 11
-117 35 -220 65 -280 7 -14 15 -40 18 -57 6 -28 4 -33 -13 -33 -10 0 -23 -6
-27 -12 -21 -34 -43 -39 -182 -42 -139 -4 -142 -4 -171 21 -29 24 -30 24 -30
4 0 -33 64 -68 137 -75 34 -3 85 -17 115 -30 29 -13 66 -28 81 -31 34 -9 90
-60 85 -77 -3 -7 -29 -21 -59 -31 -47 -15 -62 -16 -118 -6 -44 8 -121 10 -247
5 -100 -4 -185 -3 -187 1 -8 12 4 28 26 36 10 4 16 11 12 16 -3 5 -1 12 5 16
5 3 10 11 10 16 0 6 -7 3 -16 -6 -21 -20 -38 -15 -42 13 -2 14 11 39 37 70 23
27 41 52 41 57 0 16 84 95 101 95 18 0 52 33 43 42 -7 8 -124 -33 -124 -43 0
-5 -4 -9 -9 -9 -14 0 -209 -199 -216 -220 -4 -11 -13 -20 -22 -20 -13 0 -12
-5 4 -32 10 -18 27 -54 37 -80 19 -52 36 -63 36 -23 0 14 5 25 10 25 6 0 10
-4 10 -10 0 -5 9 -10 20 -10 11 0 20 5 20 10 0 16 22 12 65 -11 22 -11 52 -25
68 -29 24 -8 27 -6 27 16 0 25 14 30 40 15 10 -7 18 -4 28 10 15 22 42 25 60
7 9 -9 15 -9 24 0 13 13 51 16 62 5 9 -9 71 -14 189 -15 53 0 100 -4 103 -9 3
-5 16 -6 28 -3 18 4 25 1 29 -15 6 -23 -18 -55 -34 -46 -5 3 -18 1 -30 -6 -17
-9 -19 -13 -8 -20 10 -6 8 -9 -9 -9 -13 0 -21 -4 -18 -9 7 -11 -59 -71 -78
-71 -8 0 -19 -8 -25 -17 -7 -14 -24 -18 -68 -20 -32 -1 -61 -2 -66 -3 -13 0
23 -59 44 -70 12 -7 63 -10 122 -9 116 3 153 -9 143 -44 -3 -12 -6 -32 -6 -44
0 -33 -20 -28 -21 5 -2 24 -2 23 -9 -8 -5 -24 -8 -28 -9 -12 0 13 -5 20 -11
17 -14 -9 -12 -42 3 -49 6 -3 -3 -4 -20 -1 -61 9 -88 12 -75 8 17 -6 15 -71
-3 -90 -9 -8 -22 -12 -30 -9 -10 3 -15 -1 -16 -12 0 -9 -3 -12 -5 -6 -7 16
-57 4 -72 -18 -8 -10 -18 -15 -25 -11 -7 4 -21 6 -33 5 -11 -2 -32 1 -46 7
-17 6 -29 6 -36 -1 -8 -8 -15 -8 -24 -1 -7 6 -31 16 -53 22 -69 19 -195 158
-195 215 0 9 -13 37 -29 63 -16 27 -32 59 -36 73 -4 14 -21 38 -36 54 -16 17
-29 40 -29 52 0 26 -36 74 -55 74 -23 0 -28 20 -9 41 10 11 12 19 6 19 -7 0
-12 16 -12 38 0 26 -6 41 -20 50 -12 7 -20 8 -20 2 0 -5 5 -10 10 -10 16 0 12
-70 -5 -86 -13 -13 -18 -9 -40 40 -25 55 -34 126 -15 126 6 0 10 -18 10 -40 0
-29 4 -40 15 -40 11 0 15 11 15 43 0 28 3 37 9 28 7 -11 13 -8 26 13 28 42 6
56 -44 29 l-39 -21 -7 21 c-6 21 -6 21 -14 2 -8 -19 -8 -19 -20 3 -7 13 -9 31
-6 42 4 12 -2 26 -15 38 -29 27 -35 93 -13 162 9 30 22 64 29 75 6 11 14 32
18 46 10 45 59 88 115 102 50 12 68 26 34 28 -10 0 -5 5 12 10 40 12 190 1
243 -17 43 -16 55 -33 25 -35 -68 -6 -114 -3 -156 9 -34 10 -52 11 -59 4 -11
-11 29 -32 105 -54 23 -6 47 -15 53 -20 14 -10 104 7 156 29 47 20 55 39 20
52 -26 9 -26 9 10 10 39 1 59 18 38 31 -10 6 -3 14 22 27 129 67 124 60 86
115 -10 15 -17 31 -16 35 2 5 -14 26 -34 47 -21 22 -38 43 -38 48 0 4 -7 8
-15 8 -7 0 -18 7 -23 16 -5 8 -24 17 -43 19 -156 18 -230 32 -239 45 -9 12
-50 22 -50 12 0 -11 -38 -4 -56 9 -23 18 -116 -29 -169 -86 -29 -30 -56 -55
-61 -55 -9 0 -64 47 -64 55 0 2 14 18 30 35 17 18 30 40 28 50 -2 10 8 30 21
44 18 19 26 40 27 74 4 75 9 93 47 165 20 37 32 67 28 67 -10 0 -6 82 6 110 6
14 23 35 37 47 14 13 26 31 26 42 0 10 6 23 13 30 14 11 137 43 174 45 12 1
28 7 35 14 15 15 35 16 40 0 4 -10 10 -10 32 0 16 7 36 10 45 8 9 -3 48 3 86
12 61 15 121 19 202 14z m273 -382 c0 -11 -4 -20 -10 -20 -5 0 -10 9 -10 20 0
11 5 20 10 20 6 0 10 -9 10 -20z m-575 -498 c14 -8 16 -12 5 -12 -12 0 -11 -3
3 -11 21 -12 23 -31 2 -23 -9 4 -15 0 -15 -10 0 -13 -12 -16 -65 -16 -63 0
-155 -19 -194 -39 -11 -6 -29 -11 -40 -11 -12 0 -21 -4 -21 -9 0 -5 -13 -12
-30 -16 -22 -5 -38 -1 -60 15 -36 26 -38 47 -6 60 13 5 27 13 30 19 3 5 24 12
45 16 22 4 50 15 62 26 32 28 64 33 101 18 23 -9 33 -10 35 -2 3 7 11 9 19 6
8 -3 14 -1 14 4 0 12 89 1 115 -15z m775 -72 c11 -6 17 -17 14 -25 -5 -12 -25
-15 -93 -14 -58 0 -78 3 -61 9 14 4 39 15 55 24 35 18 59 20 85 6z m-834 -27
c-4 -5 -33 -8 -63 -9 -35 0 -49 2 -37 7 25 10 109 11 100 2z m-836 -28 c19
-22 8 -25 -12 -3 -10 10 -14 18 -9 18 5 0 14 -7 21 -15z m1630 -15 c18 -6 8
-8 -40 -9 -45 0 -60 2 -50 9 18 11 55 11 90 0z m-1685 -36 c47 12 108 -39 126
-106 7 -29 7 -43 -1 -53 -7 -9 -8 -25 -2 -46 6 -26 13 -34 33 -34 17 0 25 -6
27 -23 2 -12 8 -20 13 -17 5 4 9 -6 9 -22 0 -15 4 -44 9 -63 5 -19 12 -60 15
-90 3 -30 8 -76 12 -102 6 -44 5 -48 -18 -57 -28 -11 -81 -1 -115 20 -29 18
-120 183 -155 281 -15 43 -33 107 -40 143 -11 63 -11 67 17 125 17 35 32 55
36 49 4 -7 17 -9 34 -5z m150 -52 c29 -42 31 -52 11 -52 -8 0 -24 20 -36 45
-12 25 -26 45 -31 45 -5 0 -9 5 -9 10 0 19 39 -9 65 -48z m1340 38 c-11 -12
-15 -26 -10 -37 4 -10 9 -13 11 -8 3 7 33 9 77 7 100 -4 117 -9 117 -32 0 -18
-7 -20 -60 -20 -33 0 -60 -4 -60 -8 0 -19 94 -35 170 -29 113 9 130 0 173 -92
40 -88 54 -173 31 -191 -8 -7 -14 -19 -14 -26 0 -8 -4 -14 -9 -14 -5 0 -11 -9
-14 -19 -2 -10 -17 -27 -31 -36 -28 -19 -38 -17 -133 28 -12 5 -29 7 -37 4
-10 -4 -16 -1 -16 8 0 8 -4 15 -10 15 -5 0 -10 11 -10 24 0 13 -7 26 -15 30
-8 3 -15 14 -15 24 0 10 -11 29 -25 42 -14 13 -33 47 -44 75 -11 28 -29 68
-40 88 -11 21 -18 37 -15 37 4 0 1 6 -5 14 -9 10 -8 15 3 19 8 3 17 1 20 -6 3
-7 5 -6 5 3 1 9 -15 24 -34 34 -49 27 -49 81 -1 85 5 1 1 -8 -9 -19z m346
-768 c-6 -2 -11 -9 -11 -16 0 -20 -76 -100 -84 -88 -7 13 3 42 15 42 5 0 9 5
9 11 0 6 14 31 32 56 31 45 32 46 40 22 6 -15 5 -25 -1 -27z m-141 -2 c0 -12
-24 -30 -39 -30 -13 1 -13 3 2 11 9 6 15 14 13 18 -3 4 1 8 9 8 8 0 15 -3 15
-7z m53 -39 c-9 -12 -24 -21 -33 -21 -10 1 -6 9 14 26 33 29 46 26 19 -5z
m-358 -391 c0 -7 -6 -15 -12 -17 -8 -3 -13 4 -13 17 0 13 5 20 13 18 6 -3 12
-11 12 -18z m-836 -126 c25 -18 79 -57 119 -86 40 -29 89 -68 109 -85 19 -18
39 -33 44 -33 4 0 13 -9 19 -20 6 -11 17 -20 24 -20 18 0 26 -22 19 -49 -4
-15 -1 -21 11 -21 9 0 13 -6 10 -15 -4 -8 7 -27 25 -45 19 -20 28 -36 24 -47
-4 -10 -2 -14 5 -10 15 10 61 -13 67 -34 4 -10 9 -18 13 -17 4 1 21 -12 39
-28 24 -23 29 -34 20 -43 -8 -8 -8 -11 3 -11 11 0 11 -3 2 -12 -9 -9 -9 -15 0
-25 9 -11 6 -20 -15 -39 -15 -14 -27 -29 -27 -35 0 -6 -5 -7 -11 -3 -7 4 -10
3 -7 -2 33 -72 39 -76 137 -79 75 -3 95 -19 106 -88 14 -87 24 -114 50 -125
32 -15 56 -16 35 -2 -12 8 -9 10 12 10 15 0 29 -4 33 -10 3 -5 -15 -37 -40
-71 -25 -34 -45 -67 -45 -74 0 -7 -16 -37 -37 -66 -114 -168 -134 -196 -151
-218 l-19 -24 -38 68 c-29 51 -35 69 -25 75 13 8 6 80 -8 80 -11 0 -40 60 -47
97 -6 30 -44 71 -107 116 -18 12 -24 24 -21 38 3 11 2 19 -3 18 -20 -3 -23 2
-14 26 8 20 7 23 -7 18 -11 -4 -14 -2 -9 5 8 14 -30 92 -45 92 -6 0 -9 7 -5
15 3 9 -3 19 -14 25 -11 6 -20 17 -20 25 0 23 -32 85 -42 79 -4 -3 -5 2 -2 10
3 8 -4 24 -15 35 -12 12 -21 26 -21 31 0 6 -11 20 -25 32 -14 12 -25 27 -25
33 0 6 -10 22 -22 35 -13 14 -33 43 -44 65 -57 109 -104 194 -123 225 -11 19
-21 48 -21 63 0 27 35 104 55 120 6 6 6 10 -2 14 -7 2 -13 11 -13 20 0 20 32
9 89 -33z m161 -824 c0 -5 -2 -10 -4 -10 -3 0 -8 5 -11 10 -3 6 -1 10 4 10 6
0 11 -4 11 -10z m459 -1683 c0 -21 -1 -21 -9 -2 -12 28 -12 37 0 30 6 -3 10
-16 9 -28z m-19 -8 c0 -6 -4 -7 -10 -4 -5 3 -10 11 -10 16 0 6 5 7 10 4 6 -3
10 -11 10 -16z m3100 -634 c0 -9 -72 -85 -81 -85 -15 0 19 57 43 74 22 16 38
20 38 11z m-5386 -617 c9 15 56 11 56 -4 0 -10 10 -14 30 -12 17 1 30 6 30 10
0 16 26 7 38 -12 7 -12 17 -18 23 -15 5 4 17 1 25 -6 8 -7 39 -13 67 -14 29
-1 68 -10 86 -19 18 -10 57 -20 87 -23 34 -4 54 -11 54 -18 0 -12 14 -15 87
-15 17 0 39 -8 48 -17 12 -12 19 -13 24 -4 7 11 19 7 94 -36 18 -11 19 -13 5
-13 -11 0 -18 -8 -18 -20 0 -17 7 -20 40 -20 22 0 40 -3 40 -7 0 -5 16 -19 35
-32 31 -21 36 -22 50 -7 22 22 59 30 82 17 11 -5 35 -10 54 -10 19 1 145 0
281 -1 136 -1 250 0 255 2 7 4 61 8 171 12 17 0 32 5 32 9 0 5 19 5 43 1 46
-8 79 -7 117 2 35 9 62 9 164 0 61 -6 87 -5 82 2 -4 7 6 7 30 -1 28 -9 37 -8
44 3 7 12 12 11 28 -3 10 -9 26 -17 34 -17 9 0 18 -7 22 -15 4 -12 22 -15 93
-12 112 5 147 18 139 52 -6 23 -3 25 24 25 18 0 29 -4 25 -10 -3 -5 3 -10 14
-10 12 0 21 -6 21 -14 0 -14 53 -23 185 -32 39 -3 106 -14 150 -25 44 -11 105
-25 135 -30 30 -6 62 -17 72 -26 11 -10 18 -12 18 -5 0 7 7 12 16 12 10 0 14
-6 11 -14 -9 -23 24 -44 81 -52 28 -3 52 -10 52 -14 0 -4 30 -10 68 -13 80 -6
178 -37 241 -75 55 -34 149 -78 211 -99 42 -14 94 -47 131 -83 21 -20 71 -88
70 -94 -3 -24 4 -34 39 -56 22 -14 40 -30 40 -37 0 -8 14 -13 39 -13 22 0 44
-6 51 -15 7 -8 20 -15 30 -15 23 0 36 -82 20 -124 -10 -28 -11 -28 -33 -10
-42 35 -97 96 -97 107 0 5 -2 8 -5 5 -8 -8 -75 53 -75 69 0 7 -9 14 -20 14
-34 2 -36 3 -86 35 -46 30 -82 46 -197 91 -26 10 -61 30 -78 46 -17 15 -34 27
-38 27 -4 0 -16 8 -27 18 -40 35 -84 54 -114 47 -16 -3 -44 -2 -63 3 -61 17
-34 -19 41 -55 108 -51 211 -93 228 -93 26 0 74 -33 74 -51 0 -10 7 -25 16
-34 9 -8 13 -22 10 -30 -6 -18 43 -75 65 -75 10 0 19 -4 21 -10 2 -5 27 -12
57 -15 59 -5 101 -27 101 -50 0 -8 5 -15 11 -15 7 0 9 -9 6 -22 -3 -12 -1 -41
6 -66 10 -40 10 -45 -8 -58 -18 -14 -18 -14 0 -14 14 0 16 -3 7 -12 -8 -8 -20
-5 -50 15 -21 15 -44 27 -51 27 -7 0 -44 34 -83 75 -39 42 -87 83 -107 92 -20
9 -76 35 -126 58 -49 23 -117 49 -150 59 -33 10 -77 25 -98 34 -41 17 -69 9
-75 -19 -3 -16 41 -39 73 -39 12 0 30 -9 39 -19 10 -11 33 -27 52 -36 29 -14
33 -19 24 -36 -6 -10 -16 -19 -22 -19 -7 0 -3 -7 8 -15 18 -13 18 -14 -5 -8
l-24 6 19 -26 c10 -14 26 -25 34 -24 9 1 14 -5 13 -17 -1 -13 2 -15 9 -8 8 8
17 8 29 1 13 -6 25 -6 38 3 17 10 24 7 55 -26 29 -29 34 -40 27 -55 -14 -25
-3 -58 20 -64 10 -3 17 -1 13 4 -14 23 27 6 45 -18 17 -23 22 -25 30 -14 11
17 8 -54 -3 -80 -4 -10 -3 -20 2 -23 6 -3 13 5 16 19 8 32 42 40 90 20 33 -14
37 -19 31 -42 -16 -66 -63 -95 -113 -69 -38 20 -132 113 -132 130 0 18 -20 26
-41 15 -19 -9 -31 -3 -157 84 -54 37 -103 67 -110 67 -7 0 -20 8 -30 17 -21
22 -55 38 -102 51 -19 6 -60 18 -90 27 -36 12 -83 17 -139 16 -121 -3 -261 45
-334 114 -20 19 -40 35 -44 35 -4 0 -27 17 -52 38 -25 21 -58 47 -73 56 -15
10 -30 27 -34 38 -4 14 -12 18 -27 14 -25 -6 -97 13 -97 26 0 4 -11 8 -23 8
-13 0 -27 3 -31 7 -4 4 -24 8 -46 9 -21 1 -65 12 -97 25 -54 21 -76 22 -305
25 -136 1 -251 5 -256 8 -5 3 -89 6 -188 7 -107 1 -184 5 -192 12 -9 7 -16 7
-24 -1 -8 -8 -16 -7 -29 1 -15 9 -24 9 -40 -1 -13 -8 -25 -10 -32 -4 -7 5 -55
7 -107 5 -52 -2 -103 -4 -112 -3 -10 0 -28 1 -40 2 -13 0 -51 -1 -86 -3 -45
-2 -66 1 -71 10 -7 11 -11 10 -18 -4 -9 -15 -13 -15 -33 -4 -18 11 -24 11 -27
2 -3 -8 -21 -13 -43 -13 -22 0 -40 5 -43 13 -3 9 -7 9 -20 -2 -12 -9 -21 -10
-29 -3 -7 5 -85 12 -172 14 -133 4 -161 8 -171 21 -8 11 -26 17 -49 17 -29 0
-36 4 -36 19 0 17 -4 19 -32 10 -44 -12 -48 -12 -48 6 0 8 -6 24 -12 35 -11
17 -10 22 1 29 10 7 4 17 -28 46 -33 30 -41 44 -41 71 0 33 -1 34 -40 34 l-40
0 0 41 c0 32 4 42 20 46 16 4 20 14 20 44 0 32 -3 39 -20 39 -17 0 -20 -7 -21
-42 l-1 -43 -10 32 c-6 18 -7 40 -2 50 8 19 10 30 13 77 1 20 5 27 15 23 15
-6 58 22 86 54 10 12 18 14 26 8 8 -6 14 -6 18 -1z m-168 -131 c8 3 14 0 14
-7 0 -15 -33 -9 -36 8 -1 7 0 8 2 3 3 -6 12 -7 20 -4z m104 -307 c0 -40 0 -40
-39 -40 -22 0 -41 -5 -43 -12 -3 -8 -9 -8 -24 0 -18 11 -18 11 4 12 19 0 22 5
22 40 l0 40 40 0 40 0 0 -40z m3985 -115 c0 -5 22 -21 49 -34 59 -29 47 -39
-20 -16 -49 17 -97 45 -76 45 7 0 10 5 6 11 -4 7 2 9 17 7 13 -1 24 -7 24 -13z
m2133 -407 c2 -4 15 -5 28 -2 16 4 24 2 25 -7 5 -53 -31 -162 -54 -167 -9 -2
-25 6 -36 17 -28 28 -30 27 -25 -16 2 -21 2 -32 -2 -25 -10 22 -26 13 -22 -13
3 -14 1 -25 -3 -25 -5 0 -9 11 -9 24 0 35 -10 57 -23 49 -6 -3 -7 -1 -3 6 4 6
4 21 1 32 -6 17 -9 19 -17 8 -6 -10 -7 -6 -2 11 4 14 11 28 16 31 5 3 9 9 9
13 -3 20 2 30 29 56 25 24 36 29 58 24 15 -4 28 -11 30 -16z m255 -12 c-4 -17
-7 -40 -7 -51 -1 -11 -9 -28 -18 -39 -9 -10 -14 -24 -11 -32 8 -21 -25 -17
-44 5 -9 11 -22 17 -29 14 -19 -7 -19 100 -1 119 8 7 37 14 65 14 l51 2 -6
-32z m-639 -237 c-3 -5 8 -9 25 -9 33 0 48 -14 33 -33 -5 -7 -12 -34 -15 -60
-12 -86 -32 -101 -99 -72 -13 5 -18 3 -18 -9 0 -9 7 -16 16 -16 10 0 12 -4 7
-12 -4 -7 -8 -20 -8 -28 0 -22 -34 -25 -49 -4 -7 10 -11 25 -9 35 3 9 0 20 -7
24 -7 4 -8 11 -1 19 6 7 7 26 0 53 -16 75 27 133 95 125 20 -2 33 -8 30 -13z
m-1476 -57 c4 -41 -19 -43 -53 -6 -33 36 -32 41 13 40 34 -2 37 -4 40 -34z
m346 -12 c15 -26 16 -36 6 -66 -10 -28 -15 -33 -26 -23 -18 15 -34 73 -27 99
8 29 26 25 47 -10z m1197 -3 c-10 -9 -11 -8 -5 6 3 10 9 15 12 12 3 -3 0 -11
-7 -18z m-1388 -41 c20 -18 37 -39 37 -45 0 -6 7 -11 16 -11 14 0 14 -3 3 -16
-48 -58 -151 -56 -178 3 -12 26 -15 53 -5 53 12 0 33 -28 26 -35 -4 -5 -1 -5
6 -1 6 4 12 18 12 31 0 64 28 71 83 21z m1626 -23 c17 -20 31 -44 31 -54 0
-23 -63 -149 -89 -175 -11 -12 -18 -24 -15 -26 2 -3 -9 -3 -26 0 -17 2 -32 12
-35 22 -6 18 1 110 11 143 3 9 0 33 -6 52 -13 38 -2 58 36 68 45 11 62 6 93
-30z m-398 -254 c14 -14 31 -28 39 -31 32 -10 -33 -197 -69 -199 -9 -1 -25 -2
-36 -3 -37 -2 -44 22 -35 129 4 55 13 112 20 126 11 23 15 25 34 15 11 -6 33
-23 47 -37z m-225 -52 c25 -29 28 -51 9 -67 -8 -7 -15 -17 -15 -22 0 -29 -85
-69 -148 -70 -30 0 -32 2 -37 46 -4 30 1 46 22 76 34 47 55 58 109 59 30 1 45
-5 60 -22z m1192 -16 l30 -31 -29 0 c-16 0 -29 -4 -29 -10 0 -15 -15 -12 -68
12 -58 27 -55 24 -50 40 4 8 27 14 60 16 50 3 58 0 86 -27z m-2226 -245 c4 -6
8 -24 8 -39 0 -25 -3 -28 -27 -25 -23 2 -29 9 -31 33 -2 17 -10 35 -19 42 -13
10 -8 11 23 6 22 -3 42 -11 46 -17z m468 -156 c0 -5 -10 -10 -22 -9 -22 0 -22
1 -3 9 11 5 21 9 23 9 1 1 2 -3 2 -9z m53 -40 c8 -30 -27 -47 -95 -48 -52 -1
-58 1 -58 19 0 11 6 21 13 23 106 30 133 31 140 6z m-2923 -387 c-10 -7 -56
-18 -101 -24 -68 -8 -87 -7 -114 5 -18 9 -81 19 -141 24 -95 7 -77 8 133 8
204 0 239 -2 223 -13z"/>
<path d="M3810 8716 c0 -2 7 -9 15 -16 12 -10 15 -10 15 4 0 9 -7 16 -15 16
-8 0 -15 -2 -15 -4z"/>
<path d="M3120 8690 c0 -5 4 -10 9 -10 6 0 13 5 16 10 3 6 -1 10 -9 10 -9 0
-16 -4 -16 -10z"/>
<path d="M3860 6910 c-12 -8 -9 -10 13 -10 15 0 27 5 27 10 0 13 -20 13 -40 0z"/>
<path d="M3728 6903 c6 -2 18 -2 25 0 6 3 1 5 -13 5 -14 0 -19 -2 -12 -5z"/>
<path d="M2637 7360 c6 -21 33 -36 33 -17 0 7 -9 18 -19 24 -16 10 -18 9 -14
-7z"/>
<path d="M4196 7395 c-4 -10 1 -15 14 -15 11 0 20 7 20 15 0 8 -6 15 -14 15
-8 0 -16 -7 -20 -15z"/>
<path d="M6910 1210 c0 -5 5 -10 11 -10 5 0 7 5 4 10 -3 6 -8 10 -11 10 -2 0
-4 -4 -4 -10z"/>
</g>
</svg>
